<?xml version="1.0" encoding="UTF-8"?>
<svg width="451px" height="100px" viewBox="0 0 451 100" version="1.1" xmlns="http://www.w3.org/2000/svg" xmlns:xlink="http://www.w3.org/1999/xlink">
    <title>MIBIscope Lt</title>
    <g id="logos" stroke="none" stroke-width="1" fill="none" fill-rule="evenodd">
        <g id="from-andy" transform="translate(-337, -504)" fill-rule="nonzero">
            <g id="MIBIscope-Lt" transform="translate(337, 504)">
                <path d="M174.038921,40.1685047 L159.247506,58.5694291 C158.414542,59.579082 157.127235,60.6897002 154.75455,60.6897002 C152.381866,60.6897002 151.094559,59.5285994 150.312078,58.5694291 L135.520662,40.1180221 L135.520662,57.3578456 C135.520662,59.579082 134.157631,60.6897002 131.406327,60.6897002 C128.655023,60.6897002 127.342474,59.579082 127.342474,57.3578456 L127.342474,30.4505954 C127.342474,28.0274285 128.730747,26.7906036 131.456809,26.7906036 C133.9557,26.7906036 135.217767,27.8002565 136.479833,29.3399772 L154.729309,52.0824091 L173.029268,29.3399772 C174.291334,27.8002565 175.5534,26.815845 178.052291,26.7906036 C180.753113,26.7906036 182.166627,28.1031524 182.166627,30.4505954 L182.166627,57.3578456 C182.166627,59.579082 180.803596,60.6897002 178.102774,60.6897002 C175.401953,60.6897002 173.988438,59.579082 173.988438,57.3578456 L173.988438,40.1685047 L174.038921,40.1685047 Z" id="Path" fill="#0C2832"></path>
                <path d="M189.208956,30.1224582 C189.208956,27.9012218 190.597229,26.7906036 193.373774,26.7906036 C196.15032,26.7906036 197.387145,27.9012218 197.387145,30.1224582 L197.387145,57.3578456 C197.387145,59.579082 196.024113,60.6897002 193.272809,60.6897002 C190.521505,60.6897002 189.208956,59.579082 189.208956,57.3578456 L189.208956,30.1224582 L189.208956,30.1224582 Z" id="Path" fill="#0C2832"></path>
                <path d="M245.497106,52.7134422 C245.497106,57.8879134 241.155599,60.437287 232.548308,60.437287 L207.710846,60.437287 C205.388644,60.437287 204.177061,59.4276341 204.177061,57.4335696 L204.177061,29.9962516 C204.177061,28.0274285 205.388644,26.9925342 207.710846,26.9925342 L231.614379,26.9925342 C240.499324,26.9925342 244.891314,29.7943211 244.891314,35.4483774 L244.891314,37.997751 C244.891314,40.1685047 243.780696,42.0111213 241.609942,43.3993941 C244.159316,44.8886321 245.471865,46.8826966 245.471865,49.2806223 L245.471865,52.6629596 L245.497106,52.7134422 Z M236.839332,35.8774799 C236.839332,34.2367939 235.198646,33.4038302 231.816309,33.4038302 L212.834834,33.4038302 C212.55718,33.4038302 212.355249,33.5552782 212.355249,33.8329327 L212.355249,40.6480899 L231.917274,40.6480899 C235.198646,40.6480899 236.839332,39.8656089 236.839332,38.3258882 L236.839332,35.8522385 L236.839332,35.8774799 Z M237.293676,48.8515198 C237.293676,47.2613165 235.65299,46.4788355 232.270653,46.4788355 L212.380491,46.4788355 L212.380491,53.6221298 C212.380491,53.8997844 212.582421,54.0512323 212.860076,54.0512323 L232.270653,54.0512323 C235.65299,54.0512323 237.293676,53.2687513 237.293676,51.7290306 L237.293676,48.8262785 L237.293676,48.8515198 Z" id="Shape" fill="#0C2832"></path>
                <path d="M251.68123,30.1224582 C251.68123,27.9012218 253.069503,26.7906036 255.846049,26.7906036 C258.622594,26.7906036 259.859419,27.9012218 259.859419,30.1224582 L259.859419,57.3578456 C259.859419,59.579082 258.496387,60.6897002 255.745083,60.6897002 C252.993779,60.6897002 251.68123,59.579082 251.68123,57.3578456 L251.68123,30.1224582 L251.68123,30.1224582 Z" id="Path" fill="#0C2832"></path>
                <path d="M298.150506,54.8589547 C298.150506,58.5694291 294.566238,60.437287 287.473426,60.437287 L273.212079,60.437287 C272.050978,60.437287 271.419945,59.9577019 271.419945,58.9985316 C271.419945,58.0393613 272.050978,57.5597762 273.212079,57.5597762 L287.473426,57.5597762 C292.042105,57.5597762 294.313825,56.5753646 294.313825,54.6317827 L294.313825,52.1328918 C294.313825,50.2397926 292.168312,49.2806223 287.826805,49.2806223 L281.188337,49.2806223 C274.802282,49.2806223 271.596634,47.5137297 271.596634,44.0809098 L271.596634,41.5062949 C271.596634,37.922027 274.903247,36.1046518 281.44075,36.1046518 L285.378396,36.1046518 C286.539497,36.1046518 287.145289,36.5842369 287.145289,37.5434072 C287.145289,38.5025774 286.539497,38.9821626 285.378396,38.9821626 L281.491233,38.9821626 C277.452621,38.9821626 275.408074,39.8656089 275.408074,41.6577428 L275.408074,43.8284966 C275.408074,45.5953892 277.351656,46.4283528 281.163095,46.4283528 L287.54915,46.4283528 C294.61672,46.4283528 298.150506,48.2962107 298.150506,51.9814438 L298.150506,54.8337133 L298.150506,54.8589547 Z" id="Path" fill="#5F7178"></path>
                <path d="M313.976815,60.4625283 C307.136417,60.4625283 303.678355,58.2160506 303.678355,53.7230951 L303.678355,42.7936023 C303.678355,38.3763708 307.060693,36.1551344 313.800126,36.1551344 L327.253751,36.1551344 C328.38961,36.1551344 329.020643,36.6347195 329.020643,37.5938898 C329.020643,38.5530601 328.38961,39.0326452 327.253751,39.0326452 L313.87585,39.0326452 C309.635308,39.0326452 307.489795,40.2947114 307.489795,42.8693263 L307.489795,53.6221298 C307.489795,56.2472274 309.660549,57.5850175 314.153504,57.5850175 L327.253751,57.5850175 C328.38961,57.5850175 329.020643,58.0646027 329.020643,59.0237729 C329.020643,59.9829432 328.38961,60.4625283 327.253751,60.4625283 L313.976815,60.4625283 L313.976815,60.4625283 Z" id="Path" fill="#5F7178"></path>
                <path d="M344.241161,60.4625283 C337.400763,60.4625283 333.942701,58.2160506 333.942701,53.7230951 L333.942701,42.8693263 C333.942701,38.4016121 337.325039,36.1551344 344.064472,36.1551344 L351.889282,36.1551344 C358.628715,36.1551344 362.011052,38.4016121 362.011052,42.8693263 L362.011052,53.7230951 C362.011052,58.2160506 358.578233,60.4625283 351.712593,60.4625283 L344.241161,60.4625283 L344.241161,60.4625283 Z M358.224854,42.9198089 C358.224854,40.3199527 356.079342,39.0326452 351.838799,39.0326452 L344.140196,39.0326452 C339.899654,39.0326452 337.754141,40.3199527 337.754141,42.9198089 L337.754141,53.5968885 C337.754141,56.2219861 339.899654,57.5597762 344.21592,57.5597762 L351.763075,57.5597762 C356.079342,57.5597762 358.224854,56.2219861 358.224854,53.5968885 L358.224854,42.9198089 Z" id="Shape" fill="#5F7178"></path>
                <path d="M397.197457,45.8478024 C397.197457,50.3912405 393.537465,52.6377182 386.267964,52.6377182 L371.930892,52.6377182 L371.930892,59.1752209 C371.930892,60.1596325 371.274618,60.6392176 369.98731,60.6392176 C368.700003,60.6392176 368.119453,60.1343911 368.119453,59.1752209 L368.119453,37.3919592 C368.119453,36.5842369 368.674762,36.1551344 369.734897,36.1551344 L386.242722,36.1551344 C393.512223,36.1551344 397.172215,38.4016121 397.172215,42.9450503 L397.172215,45.8478024 L397.197457,45.8478024 Z M371.956134,49.7349661 L386.39417,49.7349661 C391.114298,49.7349661 393.411258,48.397176 393.411258,45.7215958 L393.411258,43.0207742 C393.411258,40.345194 391.089056,39.0074039 386.419412,39.0074039 L372.233788,39.0074039 C372.057099,39.0074039 371.956134,39.0831279 371.956134,39.2598171 L371.956134,49.7349661 L371.956134,49.7349661 Z" id="Shape" fill="#5F7178"></path>
                <path d="M413.049007,60.4625283 C406.208609,60.4625283 402.750548,58.2160506 402.750548,53.7230951 L402.750548,42.7936023 C402.750548,38.3763708 406.132885,36.1551344 412.872318,36.1551344 L417.895341,36.1551344 C419.056442,36.1551344 419.662234,36.6347195 419.662234,37.5938898 C419.662234,38.5530601 419.056442,39.0326452 417.895341,39.0326452 L412.948042,39.0326452 C408.7075,39.0326452 406.561987,40.2947114 406.561987,42.8693263 L406.561987,46.832214 L427.487044,46.832214 C428.622903,46.832214 429.178213,47.2865578 429.178213,48.1952454 C429.178213,49.103933 428.622903,49.5582768 427.487044,49.5582768 L406.561987,49.5582768 L406.561987,53.5968885 C406.561987,56.2219861 408.732741,57.5597762 413.225697,57.5597762 L427.487044,57.5597762 C428.673386,57.5597762 429.279178,58.0393613 429.279178,58.9985316 C429.279178,59.9577019 428.673386,60.437287 427.487044,60.437287 L413.049007,60.437287 L413.049007,60.4625283 Z" id="Path" fill="#5F7178"></path>
                <path d="M433.721651,35.9784452 L430.869381,35.9784452 C430.516003,35.9784452 430.339313,35.8269972 430.339313,35.5493427 C430.339313,35.2716881 430.516003,35.1202402 430.869381,35.1202402 L437.735021,35.1202402 C438.113641,35.1202402 438.29033,35.2716881 438.29033,35.5493427 C438.29033,35.8522385 438.113641,35.9784452 437.735021,35.9784452 L434.882752,35.9784452 L434.882752,42.0111213 C434.882752,42.3140172 434.680821,42.4402238 434.327442,42.4402238 C433.974064,42.4402238 433.746892,42.2887759 433.746892,42.0111213 L433.746892,35.9784452 L433.721651,35.9784452 Z M449.800373,37.0133394 L445.787003,42.1878106 C445.660796,42.3392585 445.484107,42.4654651 445.181211,42.4654651 C444.878315,42.4654651 444.701626,42.3140172 444.600661,42.1878106 L440.587291,37.0133394 L440.587291,42.0363626 C440.587291,42.3392585 440.38536,42.4654651 440.00674,42.4654651 C439.62812,42.4654651 439.451431,42.3140172 439.451431,42.0363626 L439.451431,35.5493427 C439.451431,35.2464468 439.653362,35.0697575 440.031981,35.0697575 C440.334877,35.0697575 440.536808,35.1707228 440.688256,35.3978947 L445.181211,41.2538816 L449.699408,35.3978947 C449.850856,35.1959641 450.002304,35.0697575 450.330441,35.0697575 C450.709061,35.0697575 450.910992,35.2212055 450.910992,35.5493427 L450.910992,42.0363626 C450.910992,42.3392585 450.709061,42.4654651 450.355682,42.4654651 C449.977063,42.4654651 449.775132,42.3140172 449.775132,42.0363626 L449.775132,37.0133394 L449.800373,37.0133394 Z" id="Shape" fill="#5F7178"></path>
                <path d="M19.6377492,63.8448656 L19.9911277,25.5285375 C19.9911277,24.8722631 20.3445062,24.2917127 20.9250567,23.9635755 L62.8508939,0.236731981 C63.406203,-0.091405216 64.1129601,-0.0661638931 64.6682692,0.236731981 L96.6490252,19.0920002 L19.6377492,63.8448656 Z" id="Path" fill="#33BE5A"></path>
                <polygon id="Path" fill="#0C2832" points="0 77.248008 105.71066 32.5456252 105.533971 51.3251695"></polygon>
                <path d="M106.695072,67.2776855 L106.619348,74.4967038 C106.619348,75.1529782 106.265969,75.7335287 105.685419,76.0616659 L63.7343402,99.763268 C63.1790311,100.091405 62.4722741,100.066164 61.916965,99.763268 L23.2724997,76.9955948 L106.644589,67.3029268 L106.695072,67.2776855 Z" id="Path" fill="#00703C"></path>
            </g>
        </g>
    </g>
</svg>